<svg display="none" xmlns="http://www.w3.org/2000/svg">
  <symbol id="twitter-svg" viewBox="0 0 40 40">
    <path
      d="M20 40C17.2917 40 14.7005 39.4727 12.2266 38.418C9.7526 37.3633 7.6237 35.944 5.83984 34.1602C4.05599 32.3763 2.63672 30.2474 1.58203 27.7734C0.527344 25.2995 0 22.7083 0 20C0 17.2917 0.527344 14.7005 1.58203 12.2266C2.63672 9.7526 4.05599 7.6237 5.83984 5.83984C7.6237 4.05599 9.7526 2.63672 12.2266 1.58203C14.7005 0.527344 17.2917 0 20 0C22.7083 0 25.2995 0.527344 27.7734 1.58203C30.2474 2.63672 32.3763 4.05599 34.1602 5.83984C35.944 7.6237 37.3633 9.7526 38.418 12.2266C39.4727 14.7005 40 17.2917 40 20C40 22.7083 39.4727 25.2995 38.418 27.7734C37.3633 30.2474 35.944 32.3763 34.1602 34.1602C32.3763 35.944 30.2474 37.3633 27.7734 38.418C25.2995 39.4727 22.7083 40 20 40ZM31.7578 10C31.6016 10.0781 31.3672 10.2214 31.0547 10.4297L30.293 10.9375L29.5703 11.3281L28.75 11.6016C27.7865 10.5339 26.6016 10 25.1953 10C22.1484 10 20.625 11.276 20.625 13.8281V16.1328C16.4323 15.9245 13.2161 14.388 10.9766 11.5234C10.3255 12.2005 10 12.9427 10 13.75C10 15.4688 10.638 16.7708 11.9141 17.6562C11.7578 17.6562 11.5365 17.6693 11.25 17.6953C10.9635 17.7214 10.7357 17.7214 10.5664 17.6953C10.3971 17.6693 10.2083 17.6042 10 17.5C10 18.6979 10.319 19.694 10.957 20.4883C11.5951 21.2826 12.474 21.7969 13.5938 22.0312C13.3333 22.3438 12.9688 22.5 12.5 22.5C12.0833 22.5 11.7188 22.3828 11.4062 22.1484C11.4062 23.1641 11.8945 23.9518 12.8711 24.5117C13.8477 25.0716 14.9479 25.3646 16.1719 25.3906C15.7031 26.0938 15.0195 26.6211 14.1211 26.9727C13.2227 27.3242 12.2656 27.5 11.25 27.5C10.8854 27.5 10.3841 27.4089 9.74609 27.2266C9.10807 27.0443 8.77604 26.9531 8.75 26.9531C9.16667 27.7865 10.0195 28.5026 11.3086 29.1016C12.5977 29.7005 14.2318 30 16.2109 30C17.9557 30 19.5833 29.694 21.0938 29.082C22.6042 28.4701 23.8932 27.6562 24.9609 26.6406C26.0286 25.625 26.9466 24.4661 27.7148 23.1641C28.4831 21.862 29.056 20.5143 29.4336 19.1211C29.8112 17.7279 30 16.3542 30 15C30 14.9479 30.1562 14.8372 30.4688 14.668C30.7812 14.4987 31.1458 14.2708 31.5625 13.9844C31.9792 13.6979 32.2917 13.3984 32.5 13.0859C31.0938 13.0859 30.1562 13.112 29.6875 13.1641C30.599 12.6172 31.2891 11.5625 31.7578 10Z" />
  </symbol>
  <symbol id="linkedin-svg" viewBox="0 0 40 40">
    <path d="M20 0C8.95417 0 0 8.95417 0 20C0 31.0458 8.95417 40 20 40C31.0458 40 40 31.0458 40 20C40 8.95417 31.0458 0 20 0ZM15.1042 28.2896H11.0542V15.2562H15.1042V28.2896ZM13.0542 13.6562C11.775 13.6562 10.9479 12.75 10.9479 11.6292C10.9479 10.4854 11.8 9.60625 13.1062 9.60625C14.4125 9.60625 15.2125 10.4854 15.2375 11.6292C15.2375 12.75 14.4125 13.6562 13.0542 13.6562ZM29.8958 28.2896H25.8458V21.0667C25.8458 19.3854 25.2583 18.2437 23.7938 18.2437C22.675 18.2437 22.0104 19.0167 21.7167 19.7604C21.6083 20.025 21.5812 20.4 21.5812 20.7729V28.2875H17.5292V19.4125C17.5292 17.7854 17.4771 16.425 17.4229 15.2542H20.9417L21.1271 17.0646H21.2083C21.7417 16.2146 23.0479 14.9604 25.2333 14.9604C27.8979 14.9604 29.8958 16.7458 29.8958 20.5833V28.2896Z" />
  </symbol>
  <symbol id="google-svg" viewBox="0 0 40 40">
    <path d="M20 0C8.9525 0 0 8.9525 0 20C0 31.0475 8.9525 40 20 40C31.0475 40 40 31.0475 40 20C40 8.9525 31.0475 0 20 0ZM15 30C9.47 30 5 25.5325 5 20C5 14.4675 9.47 10 15 10C17.7025 10 19.96 10.985 21.7025 12.6175L18.9825 15.2275C18.24 14.5175 16.9425 13.6875 14.9975 13.6875C11.5825 13.6875 8.795 16.515 8.795 20C8.795 23.485 11.585 26.3125 14.9975 26.3125C18.9575 26.3125 20.4425 23.47 20.67 22H14.9975V18.57H24.4425C24.5275 19.07 24.6 19.57 24.6 20.2275C24.6 25.945 20.7725 30 14.9975 30H15ZM32.5 20V22.5H30V20H27.5V17.5H30V15H32.5V17.5H35V20H32.5Z" />
  </symbol>
  <symbol id="facebook-svg" viewBox="0 0 40 40">
    <path d="M20 0C8.95417 0 0 8.95417 0 20C0 31.0458 8.95417 40 20 40C31.0458 40 40 31.0458 40 20C40 8.95417 31.0458 0 20 0ZM24.7375 13.8208H21.7313C21.375 13.8208 20.9792 14.2896 20.9792 14.9125V17.0833H24.7396L24.1708 20.1792H20.9792V29.4729H17.4312V20.1792H14.2125V17.0833H17.4312V15.2625C17.4312 12.65 19.2438 10.5271 21.7313 10.5271H24.7375V13.8208Z" />
  </symbol>
  <symbol id="facebook-svg" viewBox="0 0 40 40">
    <path d="M20 0C8.95417 0 0 8.95417 0 20C0 31.0458 8.95417 40 20 40C31.0458 40 40 31.0458 40 20C40 8.95417 31.0458 0 20 0ZM24.7375 13.8208H21.7313C21.375 13.8208 20.9792 14.2896 20.9792 14.9125V17.0833H24.7396L24.1708 20.1792H20.9792V29.4729H17.4312V20.1792H14.2125V17.0833H17.4312V15.2625C17.4312 12.65 19.2438 10.5271 21.7313 10.5271H24.7375V13.8208Z" />
  </symbol>
</svg>